<mxfile host="Electron" agent="Mozilla/5.0 (Windows NT 10.0; Win64; x64) AppleWebKit/537.36 (KHTML, like Gecko) draw.io/26.2.2 Chrome/134.0.6998.178 Electron/35.1.2 Safari/537.36" version="26.2.2">
  <diagram name="第 1 页" id="B3517z4Ob6WmuKiKjtUE">
    <mxGraphModel dx="571" dy="357" grid="0" gridSize="10" guides="1" tooltips="1" connect="1" arrows="1" fold="1" page="1" pageScale="1" pageWidth="827" pageHeight="1169" math="0" shadow="0">
      <root>
        <mxCell id="0" />
        <mxCell id="1" parent="0" />
        <mxCell id="uSgV0-UgF2LV6XkAVrl8-18" value="" style="shape=cylinder3;whiteSpace=wrap;html=1;boundedLbl=1;backgroundOutline=1;size=15;" vertex="1" parent="1">
          <mxGeometry x="365.73" y="831" width="204" height="140" as="geometry" />
        </mxCell>
        <mxCell id="uSgV0-UgF2LV6XkAVrl8-19" value="" style="rounded=0;whiteSpace=wrap;html=1;" vertex="1" parent="1">
          <mxGeometry x="375.13" y="911" width="55" height="32" as="geometry" />
        </mxCell>
        <mxCell id="uSgV0-UgF2LV6XkAVrl8-20" value="" style="rounded=0;whiteSpace=wrap;html=1;" vertex="1" parent="1">
          <mxGeometry x="442.86" y="897" width="55" height="32" as="geometry" />
        </mxCell>
        <mxCell id="uSgV0-UgF2LV6XkAVrl8-21" value="" style="rounded=0;whiteSpace=wrap;html=1;" vertex="1" parent="1">
          <mxGeometry x="506.13" y="876" width="55" height="32" as="geometry" />
        </mxCell>
        <mxCell id="uSgV0-UgF2LV6XkAVrl8-4" value="" style="rounded=0;whiteSpace=wrap;html=1;" vertex="1" parent="1">
          <mxGeometry x="335.73" y="722" width="263" height="89" as="geometry" />
        </mxCell>
        <mxCell id="X00k9EBfxEMSR_5KhBsR-29" value="" style="rounded=0;whiteSpace=wrap;html=1;shadow=1;" parent="1" vertex="1">
          <mxGeometry x="269" y="345" width="278" height="254" as="geometry" />
        </mxCell>
        <mxCell id="tf6nLZfLd6ZUMMVnF4iO-27" style="edgeStyle=orthogonalEdgeStyle;rounded=0;orthogonalLoop=1;jettySize=auto;html=1;" parent="1" source="tf6nLZfLd6ZUMMVnF4iO-1" target="tf6nLZfLd6ZUMMVnF4iO-9" edge="1">
          <mxGeometry relative="1" as="geometry" />
        </mxCell>
        <mxCell id="tf6nLZfLd6ZUMMVnF4iO-28" style="edgeStyle=orthogonalEdgeStyle;rounded=0;orthogonalLoop=1;jettySize=auto;html=1;" parent="1" source="tf6nLZfLd6ZUMMVnF4iO-1" target="tf6nLZfLd6ZUMMVnF4iO-10" edge="1">
          <mxGeometry relative="1" as="geometry">
            <Array as="points">
              <mxPoint x="407" y="124" />
              <mxPoint x="452" y="124" />
            </Array>
          </mxGeometry>
        </mxCell>
        <mxCell id="tf6nLZfLd6ZUMMVnF4iO-32" style="edgeStyle=orthogonalEdgeStyle;rounded=0;orthogonalLoop=1;jettySize=auto;html=1;" parent="1" source="tf6nLZfLd6ZUMMVnF4iO-1" target="tf6nLZfLd6ZUMMVnF4iO-14" edge="1">
          <mxGeometry relative="1" as="geometry">
            <Array as="points">
              <mxPoint x="407" y="124" />
              <mxPoint x="632" y="124" />
            </Array>
          </mxGeometry>
        </mxCell>
        <mxCell id="tf6nLZfLd6ZUMMVnF4iO-33" style="edgeStyle=orthogonalEdgeStyle;rounded=0;orthogonalLoop=1;jettySize=auto;html=1;" parent="1" source="tf6nLZfLd6ZUMMVnF4iO-1" target="tf6nLZfLd6ZUMMVnF4iO-8" edge="1">
          <mxGeometry relative="1" as="geometry">
            <Array as="points">
              <mxPoint x="407" y="124" />
              <mxPoint x="362" y="124" />
            </Array>
          </mxGeometry>
        </mxCell>
        <mxCell id="tf6nLZfLd6ZUMMVnF4iO-34" style="edgeStyle=orthogonalEdgeStyle;rounded=0;orthogonalLoop=1;jettySize=auto;html=1;" parent="1" source="tf6nLZfLd6ZUMMVnF4iO-1" target="tf6nLZfLd6ZUMMVnF4iO-7" edge="1">
          <mxGeometry relative="1" as="geometry">
            <Array as="points">
              <mxPoint x="407" y="124" />
              <mxPoint x="317" y="124" />
            </Array>
          </mxGeometry>
        </mxCell>
        <mxCell id="tf6nLZfLd6ZUMMVnF4iO-36" style="edgeStyle=orthogonalEdgeStyle;rounded=0;orthogonalLoop=1;jettySize=auto;html=1;" parent="1" source="tf6nLZfLd6ZUMMVnF4iO-1" target="tf6nLZfLd6ZUMMVnF4iO-4" edge="1">
          <mxGeometry relative="1" as="geometry">
            <Array as="points">
              <mxPoint x="407" y="124" />
              <mxPoint x="227" y="124" />
            </Array>
          </mxGeometry>
        </mxCell>
        <mxCell id="tf6nLZfLd6ZUMMVnF4iO-1" value="" style="image;aspect=fixed;html=1;points=[];align=center;fontSize=12;image=img/lib/azure2/general/Folder_Blank.svg;" parent="1" vertex="1">
          <mxGeometry x="389" y="76" width="35.73" height="29" as="geometry" />
        </mxCell>
        <mxCell id="tf6nLZfLd6ZUMMVnF4iO-3" value="bin" style="image;aspect=fixed;html=1;points=[];align=center;fontSize=12;image=img/lib/azure2/general/Folder_Blank.svg;" parent="1" vertex="1">
          <mxGeometry x="164" y="167" width="35.73" height="29" as="geometry" />
        </mxCell>
        <mxCell id="tf6nLZfLd6ZUMMVnF4iO-4" value="boot" style="image;aspect=fixed;html=1;points=[];align=center;fontSize=12;image=img/lib/azure2/general/Folder_Blank.svg;" parent="1" vertex="1">
          <mxGeometry x="209" y="167" width="35.73" height="29" as="geometry" />
        </mxCell>
        <mxCell id="tf6nLZfLd6ZUMMVnF4iO-6" value="dev" style="image;aspect=fixed;html=1;points=[];align=center;fontSize=12;image=img/lib/azure2/general/Folder_Blank.svg;" parent="1" vertex="1">
          <mxGeometry x="254" y="167" width="35.73" height="29" as="geometry" />
        </mxCell>
        <mxCell id="tf6nLZfLd6ZUMMVnF4iO-7" value="etc" style="image;aspect=fixed;html=1;points=[];align=center;fontSize=12;image=img/lib/azure2/general/Folder_Blank.svg;" parent="1" vertex="1">
          <mxGeometry x="299" y="167" width="35.73" height="29" as="geometry" />
        </mxCell>
        <mxCell id="tf6nLZfLd6ZUMMVnF4iO-39" style="edgeStyle=orthogonalEdgeStyle;rounded=0;orthogonalLoop=1;jettySize=auto;html=1;" parent="1" target="tf6nLZfLd6ZUMMVnF4iO-17" edge="1">
          <mxGeometry relative="1" as="geometry">
            <mxPoint x="362" y="218" as="sourcePoint" />
            <Array as="points">
              <mxPoint x="362" y="226" />
              <mxPoint x="317" y="226" />
            </Array>
          </mxGeometry>
        </mxCell>
        <mxCell id="tf6nLZfLd6ZUMMVnF4iO-8" value="home" style="image;aspect=fixed;html=1;points=[];align=center;fontSize=12;image=img/lib/azure2/general/Folder_Blank.svg;" parent="1" vertex="1">
          <mxGeometry x="344" y="167" width="35.73" height="29" as="geometry" />
        </mxCell>
        <mxCell id="tf6nLZfLd6ZUMMVnF4iO-9" value="root" style="image;aspect=fixed;html=1;points=[];align=center;fontSize=12;image=img/lib/azure2/general/Folder_Blank.svg;" parent="1" vertex="1">
          <mxGeometry x="389" y="167" width="35.73" height="29" as="geometry" />
        </mxCell>
        <mxCell id="tf6nLZfLd6ZUMMVnF4iO-10" value="run" style="image;aspect=fixed;html=1;points=[];align=center;fontSize=12;image=img/lib/azure2/general/Folder_Blank.svg;" parent="1" vertex="1">
          <mxGeometry x="434" y="167" width="35.73" height="29" as="geometry" />
        </mxCell>
        <mxCell id="tf6nLZfLd6ZUMMVnF4iO-11" value="sbin" style="image;aspect=fixed;html=1;points=[];align=center;fontSize=12;image=img/lib/azure2/general/Folder_Blank.svg;" parent="1" vertex="1">
          <mxGeometry x="479" y="167" width="35.73" height="29" as="geometry" />
        </mxCell>
        <mxCell id="tf6nLZfLd6ZUMMVnF4iO-12" value="tmp" style="image;aspect=fixed;html=1;points=[];align=center;fontSize=12;image=img/lib/azure2/general/Folder_Blank.svg;" parent="1" vertex="1">
          <mxGeometry x="524" y="167" width="35.73" height="29" as="geometry" />
        </mxCell>
        <mxCell id="tf6nLZfLd6ZUMMVnF4iO-13" value="usr" style="image;aspect=fixed;html=1;points=[];align=center;fontSize=12;image=img/lib/azure2/general/Folder_Blank.svg;" parent="1" vertex="1">
          <mxGeometry x="569" y="167" width="35.73" height="29" as="geometry" />
        </mxCell>
        <mxCell id="tf6nLZfLd6ZUMMVnF4iO-14" value="var" style="image;aspect=fixed;html=1;points=[];align=center;fontSize=12;image=img/lib/azure2/general/Folder_Blank.svg;" parent="1" vertex="1">
          <mxGeometry x="614" y="167" width="35.73" height="29" as="geometry" />
        </mxCell>
        <mxCell id="tf6nLZfLd6ZUMMVnF4iO-15" value="tmp" style="image;aspect=fixed;html=1;points=[];align=center;fontSize=12;image=img/lib/azure2/general/Folder_Blank.svg;" parent="1" vertex="1">
          <mxGeometry x="614" y="240" width="35.73" height="29" as="geometry" />
        </mxCell>
        <mxCell id="tf6nLZfLd6ZUMMVnF4iO-16" value="alice" style="image;aspect=fixed;html=1;points=[];align=center;fontSize=12;image=img/lib/azure2/general/Folder_Blank.svg;" parent="1" vertex="1">
          <mxGeometry x="254" y="256" width="35.73" height="29" as="geometry" />
        </mxCell>
        <mxCell id="tf6nLZfLd6ZUMMVnF4iO-17" value="bob" style="image;aspect=fixed;html=1;points=[];align=center;fontSize=12;image=img/lib/azure2/general/Folder_Blank.svg;" parent="1" vertex="1">
          <mxGeometry x="299" y="256" width="35.73" height="29" as="geometry" />
        </mxCell>
        <mxCell id="tf6nLZfLd6ZUMMVnF4iO-18" value="eve" style="image;aspect=fixed;html=1;points=[];align=center;fontSize=12;image=img/lib/azure2/general/Folder_Blank.svg;" parent="1" vertex="1">
          <mxGeometry x="344" y="256" width="35.73" height="29" as="geometry" />
        </mxCell>
        <mxCell id="tf6nLZfLd6ZUMMVnF4iO-19" value="bin" style="image;aspect=fixed;html=1;points=[];align=center;fontSize=12;image=img/lib/azure2/general/Folder_Blank.svg;" parent="1" vertex="1">
          <mxGeometry x="431.73" y="256" width="35.73" height="29" as="geometry" />
        </mxCell>
        <mxCell id="tf6nLZfLd6ZUMMVnF4iO-20" value="local" style="image;aspect=fixed;html=1;points=[];align=center;fontSize=12;image=img/lib/azure2/general/Folder_Blank.svg;" parent="1" vertex="1">
          <mxGeometry x="476.73" y="256" width="35.73" height="29" as="geometry" />
        </mxCell>
        <mxCell id="tf6nLZfLd6ZUMMVnF4iO-21" value="sbin" style="image;aspect=fixed;html=1;points=[];align=center;fontSize=12;image=img/lib/azure2/general/Folder_Blank.svg;" parent="1" vertex="1">
          <mxGeometry x="521.73" y="256" width="35.73" height="29" as="geometry" />
        </mxCell>
        <mxCell id="tf6nLZfLd6ZUMMVnF4iO-51" style="edgeStyle=orthogonalEdgeStyle;curved=1;rounded=0;orthogonalLoop=1;jettySize=auto;html=1;endArrow=none;startFill=0;dashed=1;" parent="1" target="tf6nLZfLd6ZUMMVnF4iO-15" edge="1">
          <mxGeometry relative="1" as="geometry">
            <mxPoint x="600" y="286" as="sourcePoint" />
            <Array as="points">
              <mxPoint x="621" y="287" />
              <mxPoint x="621" y="274" />
              <mxPoint x="632" y="274" />
            </Array>
          </mxGeometry>
        </mxCell>
        <mxCell id="tf6nLZfLd6ZUMMVnF4iO-22" value="tmp" style="image;aspect=fixed;html=1;points=[];align=center;fontSize=12;image=img/lib/azure2/general/Folder_Blank.svg;" parent="1" vertex="1">
          <mxGeometry x="566.73" y="256" width="35.73" height="29" as="geometry" />
        </mxCell>
        <mxCell id="tf6nLZfLd6ZUMMVnF4iO-29" style="edgeStyle=orthogonalEdgeStyle;rounded=0;orthogonalLoop=1;jettySize=auto;html=1;entryX=0.426;entryY=0.077;entryDx=0;entryDy=0;entryPerimeter=0;" parent="1" source="tf6nLZfLd6ZUMMVnF4iO-1" target="tf6nLZfLd6ZUMMVnF4iO-11" edge="1">
          <mxGeometry relative="1" as="geometry">
            <Array as="points">
              <mxPoint x="407" y="124" />
              <mxPoint x="494" y="124" />
            </Array>
          </mxGeometry>
        </mxCell>
        <mxCell id="tf6nLZfLd6ZUMMVnF4iO-30" style="edgeStyle=orthogonalEdgeStyle;rounded=0;orthogonalLoop=1;jettySize=auto;html=1;entryX=0.566;entryY=0.192;entryDx=0;entryDy=0;entryPerimeter=0;" parent="1" source="tf6nLZfLd6ZUMMVnF4iO-1" target="tf6nLZfLd6ZUMMVnF4iO-12" edge="1">
          <mxGeometry relative="1" as="geometry">
            <Array as="points">
              <mxPoint x="407" y="124" />
              <mxPoint x="544" y="124" />
            </Array>
          </mxGeometry>
        </mxCell>
        <mxCell id="tf6nLZfLd6ZUMMVnF4iO-31" style="edgeStyle=orthogonalEdgeStyle;rounded=0;orthogonalLoop=1;jettySize=auto;html=1;entryX=0.504;entryY=0.172;entryDx=0;entryDy=0;entryPerimeter=0;" parent="1" source="tf6nLZfLd6ZUMMVnF4iO-1" target="tf6nLZfLd6ZUMMVnF4iO-13" edge="1">
          <mxGeometry relative="1" as="geometry">
            <Array as="points">
              <mxPoint x="407" y="124" />
              <mxPoint x="587" y="124" />
            </Array>
          </mxGeometry>
        </mxCell>
        <mxCell id="tf6nLZfLd6ZUMMVnF4iO-35" style="edgeStyle=orthogonalEdgeStyle;rounded=0;orthogonalLoop=1;jettySize=auto;html=1;entryX=0.488;entryY=0.019;entryDx=0;entryDy=0;entryPerimeter=0;" parent="1" source="tf6nLZfLd6ZUMMVnF4iO-1" target="tf6nLZfLd6ZUMMVnF4iO-6" edge="1">
          <mxGeometry relative="1" as="geometry">
            <Array as="points">
              <mxPoint x="407" y="124" />
              <mxPoint x="271" y="124" />
            </Array>
          </mxGeometry>
        </mxCell>
        <mxCell id="tf6nLZfLd6ZUMMVnF4iO-37" style="edgeStyle=orthogonalEdgeStyle;rounded=0;orthogonalLoop=1;jettySize=auto;html=1;entryX=0.535;entryY=0.153;entryDx=0;entryDy=0;entryPerimeter=0;" parent="1" source="tf6nLZfLd6ZUMMVnF4iO-1" target="tf6nLZfLd6ZUMMVnF4iO-3" edge="1">
          <mxGeometry relative="1" as="geometry">
            <Array as="points">
              <mxPoint x="407" y="124" />
              <mxPoint x="183" y="124" />
            </Array>
          </mxGeometry>
        </mxCell>
        <mxCell id="tf6nLZfLd6ZUMMVnF4iO-38" style="edgeStyle=orthogonalEdgeStyle;rounded=0;orthogonalLoop=1;jettySize=auto;html=1;entryX=0.504;entryY=0.207;entryDx=0;entryDy=0;entryPerimeter=0;" parent="1" edge="1">
          <mxGeometry relative="1" as="geometry">
            <mxPoint x="362" y="219" as="sourcePoint" />
            <mxPoint x="362.00792" y="257.00299999999993" as="targetPoint" />
          </mxGeometry>
        </mxCell>
        <mxCell id="tf6nLZfLd6ZUMMVnF4iO-40" style="edgeStyle=orthogonalEdgeStyle;rounded=0;orthogonalLoop=1;jettySize=auto;html=1;" parent="1" edge="1">
          <mxGeometry relative="1" as="geometry">
            <mxPoint x="362" y="217" as="sourcePoint" />
            <mxPoint x="270" y="255" as="targetPoint" />
            <Array as="points">
              <mxPoint x="362" y="226" />
              <mxPoint x="270" y="226" />
            </Array>
          </mxGeometry>
        </mxCell>
        <mxCell id="tf6nLZfLd6ZUMMVnF4iO-41" style="edgeStyle=orthogonalEdgeStyle;rounded=0;orthogonalLoop=1;jettySize=auto;html=1;" parent="1" edge="1">
          <mxGeometry relative="1" as="geometry">
            <mxPoint x="585.1800000000001" y="217" as="sourcePoint" />
            <mxPoint x="540.1800000000001" y="255" as="targetPoint" />
            <Array as="points">
              <mxPoint x="585.1800000000001" y="225" />
              <mxPoint x="540.1800000000001" y="225" />
            </Array>
          </mxGeometry>
        </mxCell>
        <mxCell id="tf6nLZfLd6ZUMMVnF4iO-42" style="edgeStyle=orthogonalEdgeStyle;rounded=0;orthogonalLoop=1;jettySize=auto;html=1;entryX=0.504;entryY=0.207;entryDx=0;entryDy=0;entryPerimeter=0;" parent="1" edge="1">
          <mxGeometry relative="1" as="geometry">
            <mxPoint x="585.1800000000001" y="218" as="sourcePoint" />
            <mxPoint x="585.1879200000001" y="256.00299999999993" as="targetPoint" />
          </mxGeometry>
        </mxCell>
        <mxCell id="tf6nLZfLd6ZUMMVnF4iO-43" style="edgeStyle=orthogonalEdgeStyle;rounded=0;orthogonalLoop=1;jettySize=auto;html=1;" parent="1" edge="1">
          <mxGeometry relative="1" as="geometry">
            <mxPoint x="585.1800000000001" y="216" as="sourcePoint" />
            <mxPoint x="493.18" y="254" as="targetPoint" />
            <Array as="points">
              <mxPoint x="585.1800000000001" y="225" />
              <mxPoint x="493.18" y="225" />
            </Array>
          </mxGeometry>
        </mxCell>
        <mxCell id="tf6nLZfLd6ZUMMVnF4iO-44" style="edgeStyle=orthogonalEdgeStyle;rounded=0;orthogonalLoop=1;jettySize=auto;html=1;" parent="1" edge="1">
          <mxGeometry relative="1" as="geometry">
            <mxPoint x="585" y="218" as="sourcePoint" />
            <mxPoint x="448.6" y="256" as="targetPoint" />
            <Array as="points">
              <mxPoint x="585" y="225" />
              <mxPoint x="541" y="225" />
              <mxPoint x="541" y="224" />
              <mxPoint x="449" y="224" />
            </Array>
          </mxGeometry>
        </mxCell>
        <mxCell id="tf6nLZfLd6ZUMMVnF4iO-46" style="edgeStyle=orthogonalEdgeStyle;rounded=0;orthogonalLoop=1;jettySize=auto;html=1;entryX=0.505;entryY=0.104;entryDx=0;entryDy=0;entryPerimeter=0;" parent="1" target="tf6nLZfLd6ZUMMVnF4iO-15" edge="1">
          <mxGeometry relative="1" as="geometry">
            <mxPoint x="632" y="217" as="sourcePoint" />
          </mxGeometry>
        </mxCell>
        <mxCell id="tf6nLZfLd6ZUMMVnF4iO-47" value="/" style="text;html=1;align=center;verticalAlign=middle;resizable=0;points=[];autosize=1;strokeColor=none;fillColor=none;" parent="1" vertex="1">
          <mxGeometry x="424.73" y="82" width="21" height="26" as="geometry" />
        </mxCell>
        <mxCell id="tf6nLZfLd6ZUMMVnF4iO-49" style="edgeStyle=orthogonalEdgeStyle;curved=1;rounded=0;orthogonalLoop=1;jettySize=auto;html=1;entryX=0.062;entryY=0.043;entryDx=0;entryDy=0;entryPerimeter=0;dashed=1;" parent="1" source="tf6nLZfLd6ZUMMVnF4iO-3" target="tf6nLZfLd6ZUMMVnF4iO-19" edge="1">
          <mxGeometry relative="1" as="geometry">
            <Array as="points">
              <mxPoint x="182" y="220" />
              <mxPoint x="434" y="220" />
            </Array>
          </mxGeometry>
        </mxCell>
        <mxCell id="tf6nLZfLd6ZUMMVnF4iO-50" style="edgeStyle=orthogonalEdgeStyle;curved=1;rounded=0;orthogonalLoop=1;jettySize=auto;html=1;entryX=-0.041;entryY=-0.008;entryDx=0;entryDy=0;entryPerimeter=0;dashed=1;" parent="1" source="tf6nLZfLd6ZUMMVnF4iO-11" target="tf6nLZfLd6ZUMMVnF4iO-21" edge="1">
          <mxGeometry relative="1" as="geometry">
            <Array as="points">
              <mxPoint x="509" y="226" />
              <mxPoint x="520" y="226" />
            </Array>
          </mxGeometry>
        </mxCell>
        <mxCell id="X00k9EBfxEMSR_5KhBsR-4" value="&lt;div&gt;&lt;br&gt;&lt;/div&gt;数据" style="strokeWidth=2;html=1;shape=mxgraph.flowchart.database;whiteSpace=wrap;" parent="1" vertex="1">
          <mxGeometry x="285.87" y="361" width="62" height="44" as="geometry" />
        </mxCell>
        <mxCell id="X00k9EBfxEMSR_5KhBsR-5" value="Mode" style="rounded=0;whiteSpace=wrap;html=1;" parent="1" vertex="1">
          <mxGeometry x="123" y="358" width="125" height="27" as="geometry" />
        </mxCell>
        <mxCell id="X00k9EBfxEMSR_5KhBsR-6" value="Owner info" style="rounded=0;whiteSpace=wrap;html=1;" parent="1" vertex="1">
          <mxGeometry x="123" y="385" width="125" height="27" as="geometry" />
        </mxCell>
        <mxCell id="X00k9EBfxEMSR_5KhBsR-7" value="Size" style="rounded=0;whiteSpace=wrap;html=1;" parent="1" vertex="1">
          <mxGeometry x="123" y="412" width="125" height="27" as="geometry" />
        </mxCell>
        <mxCell id="X00k9EBfxEMSR_5KhBsR-8" value="Timestamps" style="rounded=0;whiteSpace=wrap;html=1;" parent="1" vertex="1">
          <mxGeometry x="123" y="439" width="125" height="27" as="geometry" />
        </mxCell>
        <mxCell id="X00k9EBfxEMSR_5KhBsR-9" value="直接块指针" style="rounded=0;whiteSpace=wrap;html=1;" parent="1" vertex="1">
          <mxGeometry x="123" y="466" width="125" height="27" as="geometry" />
        </mxCell>
        <mxCell id="X00k9EBfxEMSR_5KhBsR-26" style="edgeStyle=orthogonalEdgeStyle;rounded=0;orthogonalLoop=1;jettySize=auto;html=1;" parent="1" source="X00k9EBfxEMSR_5KhBsR-10" target="X00k9EBfxEMSR_5KhBsR-19" edge="1">
          <mxGeometry relative="1" as="geometry" />
        </mxCell>
        <mxCell id="X00k9EBfxEMSR_5KhBsR-10" value="间接块指针" style="rounded=0;whiteSpace=wrap;html=1;" parent="1" vertex="1">
          <mxGeometry x="123" y="493" width="125" height="27" as="geometry" />
        </mxCell>
        <mxCell id="X00k9EBfxEMSR_5KhBsR-33" style="rounded=0;orthogonalLoop=1;jettySize=auto;html=1;entryX=0;entryY=0.5;entryDx=0;entryDy=0;" parent="1" source="X00k9EBfxEMSR_5KhBsR-11" target="X00k9EBfxEMSR_5KhBsR-20" edge="1">
          <mxGeometry relative="1" as="geometry">
            <Array as="points">
              <mxPoint x="281" y="543" />
            </Array>
          </mxGeometry>
        </mxCell>
        <mxCell id="X00k9EBfxEMSR_5KhBsR-11" value="双重间接块指针" style="rounded=0;whiteSpace=wrap;html=1;" parent="1" vertex="1">
          <mxGeometry x="123" y="520" width="125" height="27" as="geometry" />
        </mxCell>
        <mxCell id="X00k9EBfxEMSR_5KhBsR-12" value="三重间接块指针" style="rounded=0;whiteSpace=wrap;html=1;" parent="1" vertex="1">
          <mxGeometry x="123" y="547" width="125" height="27" as="geometry" />
        </mxCell>
        <mxCell id="X00k9EBfxEMSR_5KhBsR-13" value="" style="rounded=0;whiteSpace=wrap;html=1;" parent="1" vertex="1">
          <mxGeometry x="123" y="574" width="125" height="27" as="geometry" />
        </mxCell>
        <mxCell id="X00k9EBfxEMSR_5KhBsR-14" value="&lt;div&gt;&lt;br&gt;&lt;/div&gt;数据" style="strokeWidth=2;html=1;shape=mxgraph.flowchart.database;whiteSpace=wrap;" parent="1" vertex="1">
          <mxGeometry x="362.73" y="372" width="62" height="44" as="geometry" />
        </mxCell>
        <mxCell id="X00k9EBfxEMSR_5KhBsR-17" style="rounded=0;orthogonalLoop=1;jettySize=auto;html=1;entryX=0.559;entryY=0.845;entryDx=0;entryDy=0;entryPerimeter=0;exitX=1;exitY=0.75;exitDx=0;exitDy=0;" parent="1" source="X00k9EBfxEMSR_5KhBsR-9" target="X00k9EBfxEMSR_5KhBsR-4" edge="1">
          <mxGeometry relative="1" as="geometry">
            <Array as="points">
              <mxPoint x="321" y="468" />
            </Array>
          </mxGeometry>
        </mxCell>
        <mxCell id="X00k9EBfxEMSR_5KhBsR-18" style="rounded=0;orthogonalLoop=1;jettySize=auto;html=1;entryX=0.504;entryY=0.848;entryDx=0;entryDy=0;entryPerimeter=0;exitX=1;exitY=0.25;exitDx=0;exitDy=0;" parent="1" source="X00k9EBfxEMSR_5KhBsR-9" target="X00k9EBfxEMSR_5KhBsR-14" edge="1">
          <mxGeometry relative="1" as="geometry">
            <Array as="points">
              <mxPoint x="337" y="452" />
            </Array>
          </mxGeometry>
        </mxCell>
        <mxCell id="X00k9EBfxEMSR_5KhBsR-27" value="" style="rounded=0;orthogonalLoop=1;jettySize=auto;html=1;" parent="1" source="X00k9EBfxEMSR_5KhBsR-19" target="X00k9EBfxEMSR_5KhBsR-25" edge="1">
          <mxGeometry relative="1" as="geometry" />
        </mxCell>
        <mxCell id="X00k9EBfxEMSR_5KhBsR-28" style="rounded=0;orthogonalLoop=1;jettySize=auto;html=1;" parent="1" source="X00k9EBfxEMSR_5KhBsR-19" target="X00k9EBfxEMSR_5KhBsR-22" edge="1">
          <mxGeometry relative="1" as="geometry" />
        </mxCell>
        <mxCell id="X00k9EBfxEMSR_5KhBsR-19" value="指向下一个文件块的指针" style="rounded=0;whiteSpace=wrap;html=1;" parent="1" vertex="1">
          <mxGeometry x="285.87" y="485" width="89.13" height="43" as="geometry" />
        </mxCell>
        <mxCell id="X00k9EBfxEMSR_5KhBsR-34" style="edgeStyle=orthogonalEdgeStyle;rounded=0;orthogonalLoop=1;jettySize=auto;html=1;" parent="1" source="X00k9EBfxEMSR_5KhBsR-20" target="X00k9EBfxEMSR_5KhBsR-21" edge="1">
          <mxGeometry relative="1" as="geometry" />
        </mxCell>
        <mxCell id="X00k9EBfxEMSR_5KhBsR-20" value="指向下一个文件块的指针" style="rounded=0;whiteSpace=wrap;html=1;" parent="1" vertex="1">
          <mxGeometry x="299.87" y="566" width="89.13" height="43" as="geometry" />
        </mxCell>
        <mxCell id="X00k9EBfxEMSR_5KhBsR-21" value="指向下一个文件块的指针" style="rounded=0;whiteSpace=wrap;html=1;" parent="1" vertex="1">
          <mxGeometry x="429" y="566" width="89.13" height="43" as="geometry" />
        </mxCell>
        <mxCell id="X00k9EBfxEMSR_5KhBsR-22" value="&lt;div&gt;&lt;br&gt;&lt;/div&gt;数据" style="strokeWidth=2;html=1;shape=mxgraph.flowchart.database;whiteSpace=wrap;" parent="1" vertex="1">
          <mxGeometry x="414.73" y="419" width="62" height="44" as="geometry" />
        </mxCell>
        <mxCell id="X00k9EBfxEMSR_5KhBsR-25" value="&lt;div&gt;&lt;br&gt;&lt;/div&gt;数据" style="strokeWidth=2;html=1;shape=mxgraph.flowchart.database;whiteSpace=wrap;" parent="1" vertex="1">
          <mxGeometry x="476.73" y="466" width="62" height="44" as="geometry" />
        </mxCell>
        <mxCell id="X00k9EBfxEMSR_5KhBsR-30" value="&lt;div&gt;&lt;br&gt;&lt;/div&gt;数据" style="strokeWidth=2;html=1;shape=mxgraph.flowchart.database;whiteSpace=wrap;" parent="1" vertex="1">
          <mxGeometry x="569" y="507" width="62" height="44" as="geometry" />
        </mxCell>
        <mxCell id="X00k9EBfxEMSR_5KhBsR-32" value="&lt;div&gt;&lt;br&gt;&lt;/div&gt;数据" style="strokeWidth=2;html=1;shape=mxgraph.flowchart.database;whiteSpace=wrap;" parent="1" vertex="1">
          <mxGeometry x="569" y="577" width="62" height="44" as="geometry" />
        </mxCell>
        <mxCell id="X00k9EBfxEMSR_5KhBsR-35" style="rounded=0;orthogonalLoop=1;jettySize=auto;html=1;entryX=0;entryY=0.5;entryDx=0;entryDy=0;entryPerimeter=0;exitX=1;exitY=0.25;exitDx=0;exitDy=0;" parent="1" source="X00k9EBfxEMSR_5KhBsR-21" target="X00k9EBfxEMSR_5KhBsR-30" edge="1">
          <mxGeometry relative="1" as="geometry" />
        </mxCell>
        <mxCell id="X00k9EBfxEMSR_5KhBsR-37" style="rounded=0;orthogonalLoop=1;jettySize=auto;html=1;entryX=0;entryY=0.5;entryDx=0;entryDy=0;entryPerimeter=0;exitX=1;exitY=0.25;exitDx=0;exitDy=0;" parent="1" source="X00k9EBfxEMSR_5KhBsR-21" target="X00k9EBfxEMSR_5KhBsR-32" edge="1">
          <mxGeometry relative="1" as="geometry" />
        </mxCell>
        <mxCell id="X00k9EBfxEMSR_5KhBsR-38" value="Inode结构" style="text;html=1;align=center;verticalAlign=middle;resizable=0;points=[];autosize=1;strokeColor=none;fillColor=none;fontSize=19;" parent="1" vertex="1">
          <mxGeometry x="344" y="613" width="104" height="35" as="geometry" />
        </mxCell>
        <mxCell id="uSgV0-UgF2LV6XkAVrl8-1" value="" style="rounded=0;whiteSpace=wrap;html=1;" vertex="1" parent="1">
          <mxGeometry x="89" y="717" width="181" height="89" as="geometry" />
        </mxCell>
        <mxCell id="uSgV0-UgF2LV6XkAVrl8-23" style="edgeStyle=orthogonalEdgeStyle;curved=1;rounded=0;orthogonalLoop=1;jettySize=auto;html=1;entryX=0;entryY=0.25;entryDx=0;entryDy=0;" edge="1" parent="1" source="uSgV0-UgF2LV6XkAVrl8-2" target="uSgV0-UgF2LV6XkAVrl8-5">
          <mxGeometry relative="1" as="geometry" />
        </mxCell>
        <mxCell id="uSgV0-UgF2LV6XkAVrl8-2" value="a" style="rounded=0;whiteSpace=wrap;html=1;" vertex="1" parent="1">
          <mxGeometry x="98" y="726" width="55" height="32" as="geometry" />
        </mxCell>
        <mxCell id="uSgV0-UgF2LV6XkAVrl8-24" style="edgeStyle=orthogonalEdgeStyle;curved=1;rounded=0;orthogonalLoop=1;jettySize=auto;html=1;entryX=0;entryY=0.5;entryDx=0;entryDy=0;" edge="1" parent="1" source="uSgV0-UgF2LV6XkAVrl8-3" target="uSgV0-UgF2LV6XkAVrl8-14">
          <mxGeometry relative="1" as="geometry" />
        </mxCell>
        <mxCell id="uSgV0-UgF2LV6XkAVrl8-3" value="b" style="rounded=0;whiteSpace=wrap;html=1;" vertex="1" parent="1">
          <mxGeometry x="184" y="769" width="55" height="32" as="geometry" />
        </mxCell>
        <mxCell id="uSgV0-UgF2LV6XkAVrl8-5" value="inode1" style="rounded=0;whiteSpace=wrap;html=1;" vertex="1" parent="1">
          <mxGeometry x="350.86" y="729" width="55" height="32" as="geometry" />
        </mxCell>
        <mxCell id="uSgV0-UgF2LV6XkAVrl8-7" value="inode3" style="rounded=0;whiteSpace=wrap;html=1;" vertex="1" parent="1">
          <mxGeometry x="409.46000000000004" y="729" width="55" height="32" as="geometry" />
        </mxCell>
        <mxCell id="uSgV0-UgF2LV6XkAVrl8-8" value="......" style="rounded=0;whiteSpace=wrap;html=1;" vertex="1" parent="1">
          <mxGeometry x="468.73" y="729" width="55" height="32" as="geometry" />
        </mxCell>
        <mxCell id="uSgV0-UgF2LV6XkAVrl8-11" value="......" style="rounded=0;whiteSpace=wrap;html=1;" vertex="1" parent="1">
          <mxGeometry x="527.73" y="729" width="55" height="32" as="geometry" />
        </mxCell>
        <mxCell id="uSgV0-UgF2LV6XkAVrl8-14" value="inode2" style="rounded=0;whiteSpace=wrap;html=1;" vertex="1" parent="1">
          <mxGeometry x="351.29" y="768" width="55" height="32" as="geometry" />
        </mxCell>
        <mxCell id="uSgV0-UgF2LV6XkAVrl8-15" value="inode4" style="rounded=0;whiteSpace=wrap;html=1;" vertex="1" parent="1">
          <mxGeometry x="409.89" y="768" width="55" height="32" as="geometry" />
        </mxCell>
        <mxCell id="uSgV0-UgF2LV6XkAVrl8-16" value="......" style="rounded=0;whiteSpace=wrap;html=1;" vertex="1" parent="1">
          <mxGeometry x="469.15999999999997" y="768" width="55" height="32" as="geometry" />
        </mxCell>
        <mxCell id="uSgV0-UgF2LV6XkAVrl8-17" value="......" style="rounded=0;whiteSpace=wrap;html=1;" vertex="1" parent="1">
          <mxGeometry x="528.16" y="768" width="55" height="32" as="geometry" />
        </mxCell>
        <mxCell id="uSgV0-UgF2LV6XkAVrl8-25" style="edgeStyle=orthogonalEdgeStyle;curved=1;rounded=0;orthogonalLoop=1;jettySize=auto;html=1;entryX=0.5;entryY=0;entryDx=0;entryDy=0;fillColor=#ffe6cc;strokeColor=#d79b00;" edge="1" parent="1" source="uSgV0-UgF2LV6XkAVrl8-5" target="uSgV0-UgF2LV6XkAVrl8-19">
          <mxGeometry relative="1" as="geometry" />
        </mxCell>
        <mxCell id="uSgV0-UgF2LV6XkAVrl8-26" style="edgeStyle=orthogonalEdgeStyle;curved=1;rounded=0;orthogonalLoop=1;jettySize=auto;html=1;" edge="1" parent="1" source="uSgV0-UgF2LV6XkAVrl8-7" target="uSgV0-UgF2LV6XkAVrl8-21">
          <mxGeometry relative="1" as="geometry" />
        </mxCell>
        <mxCell id="uSgV0-UgF2LV6XkAVrl8-27" style="edgeStyle=orthogonalEdgeStyle;curved=1;rounded=0;orthogonalLoop=1;jettySize=auto;html=1;entryX=0.5;entryY=0;entryDx=0;entryDy=0;" edge="1" parent="1" source="uSgV0-UgF2LV6XkAVrl8-15" target="uSgV0-UgF2LV6XkAVrl8-20">
          <mxGeometry relative="1" as="geometry" />
        </mxCell>
        <mxCell id="uSgV0-UgF2LV6XkAVrl8-28" value="&lt;font style=&quot;font-size: 17px;&quot;&gt;目录项&lt;/font&gt;" style="text;html=1;align=center;verticalAlign=middle;resizable=0;points=[];autosize=1;strokeColor=none;fillColor=none;" vertex="1" parent="1">
          <mxGeometry x="145" y="688" width="69" height="32" as="geometry" />
        </mxCell>
        <mxCell id="uSgV0-UgF2LV6XkAVrl8-29" value="Inode table" style="text;html=1;align=center;verticalAlign=middle;resizable=0;points=[];autosize=1;strokeColor=none;fillColor=none;fontSize=16;" vertex="1" parent="1">
          <mxGeometry x="420.86" y="688" width="97" height="31" as="geometry" />
        </mxCell>
        <mxCell id="uSgV0-UgF2LV6XkAVrl8-30" value="数据区" style="text;html=1;align=center;verticalAlign=middle;resizable=0;points=[];autosize=1;strokeColor=none;fillColor=none;fontSize=16;" vertex="1" parent="1">
          <mxGeometry x="295" y="912" width="66" height="31" as="geometry" />
        </mxCell>
        <mxCell id="uSgV0-UgF2LV6XkAVrl8-31" value="一般inode表会占用文件系统磁盘空间的1%。&#xa;" style="text;whiteSpace=wrap;fontColor=light-dark(#000000,#EDEDED);" vertex="1" parent="1">
          <mxGeometry x="84" y="827" width="230.5" height="44" as="geometry" />
        </mxCell>
        <mxCell id="uSgV0-UgF2LV6XkAVrl8-33" value="&lt;span style=&quot;font-family: Helvetica; font-size: 12px; font-style: normal; font-variant-ligatures: normal; font-variant-caps: normal; font-weight: 400; letter-spacing: normal; orphans: 2; text-align: left; text-indent: 0px; text-transform: none; widows: 2; word-spacing: 0px; -webkit-text-stroke-width: 0px; white-space: normal; text-decoration-thickness: initial; text-decoration-style: initial; text-decoration-color: initial; float: none; display: inline !important;&quot;&gt;&lt;font style=&quot;color: rgb(255, 0, 0);&quot;&gt;一个目录文件的内容就是一个该目录下所有文件的目录项的列表。&lt;/font&gt;&lt;/span&gt;" style="text;whiteSpace=wrap;html=1;" vertex="1" parent="1">
          <mxGeometry x="84" y="868.5" width="213" height="36" as="geometry" />
        </mxCell>
      </root>
    </mxGraphModel>
  </diagram>
</mxfile>
